<svg width="28" height="28" viewBox="0 0 28 28" fill="none" xmlns="http://www.w3.org/2000/svg">
<path d="M19.8333 12.4167C22.1805 12.4167 24.0833 10.5139 24.0833 8.16669C24.0833 5.81948 22.1805 3.91669 19.8333 3.91669C17.486 3.91669 15.5833 5.81948 15.5833 8.16669C15.5833 10.5139 17.486 12.4167 19.8333 12.4167Z" fill="#5AC4F6" stroke="#5AC4F6" stroke-width="1.5" stroke-linecap="round" stroke-linejoin="round"/>
<path d="M8.16663 24.0834C10.5138 24.0834 12.4166 22.1806 12.4166 19.8334C12.4166 17.4862 10.5138 15.5834 8.16663 15.5834C5.81942 15.5834 3.91663 17.4862 3.91663 19.8334C3.91663 22.1806 5.81942 24.0834 8.16663 24.0834Z" fill="#5AC4F6" stroke="#5AC4F6" stroke-width="1.5" stroke-linecap="round" stroke-linejoin="round"/>
<path d="M16.3333 15.5834C15.9191 15.5834 15.5833 15.9191 15.5833 16.3334V22.1667C15.5833 22.675 15.7852 23.1625 16.1447 23.522L16.675 22.9916L16.1447 23.522C16.5041 23.8814 16.9916 24.0834 17.5 24.0834H22.1666C22.675 24.0834 23.1625 23.8814 23.5219 23.522L22.9916 22.9916L23.5219 23.522C23.8814 23.1625 24.0833 22.675 24.0833 22.1667V16.3334C24.0833 15.9191 23.7475 15.5834 23.3333 15.5834H16.3333ZM4.66663 3.91669C4.25241 3.91669 3.91663 4.25247 3.91663 4.66669V10.5C3.91663 11.0084 4.11856 11.4959 4.478 11.8553C4.83745 12.2148 5.32496 12.4167 5.83329 12.4167H10.5C11.0083 12.4167 11.4958 12.2148 11.8552 11.8553C12.2147 11.4959 12.4166 11.0084 12.4166 10.5V4.66669C12.4166 4.25247 12.0808 3.91669 11.6666 3.91669H4.66663Z" fill="#5AC4F6" stroke="#5AC4F6" stroke-width="1.5" stroke-linecap="round" stroke-linejoin="round"/>
</svg>
