<svg width="29" height="28" viewBox="0 0 29 28" fill="none" xmlns="http://www.w3.org/2000/svg">
<rect x="1" y="0.5" width="27" height="27" rx="10.1667" stroke="#3C4145"/>
<path d="M19.2437 10.4942C19.3273 10.4135 19.394 10.317 19.4399 10.2102C19.4858 10.1035 19.51 9.98871 19.511 9.87252C19.5121 9.75634 19.49 9.64111 19.4461 9.53356C19.4021 9.426 19.3372 9.32828 19.2551 9.24608C19.173 9.16389 19.0753 9.09887 18.9678 9.05483C18.8603 9.01078 18.7451 8.98859 18.6289 8.98954C18.5127 8.99049 18.3979 9.01458 18.2911 9.06038C18.1843 9.10619 18.0878 9.1728 18.007 9.25634L14.5 12.7622L10.9942 9.25634C10.9141 9.17037 10.8175 9.10142 10.7101 9.05359C10.6028 9.00577 10.4869 8.98005 10.3694 8.97798C10.252 8.97591 10.1353 8.99752 10.0263 9.04153C9.91735 9.08554 9.81837 9.15104 9.73529 9.23413C9.6522 9.31721 9.5867 9.41619 9.54269 9.52514C9.49868 9.63409 9.47707 9.75079 9.47914 9.86828C9.48121 9.98577 9.50693 10.1016 9.55475 10.209C9.60258 10.3163 9.67153 10.4129 9.7575 10.493L13.261 14L9.75516 17.5058C9.6006 17.6717 9.51646 17.8911 9.52046 18.1178C9.52446 18.3445 9.61629 18.5607 9.77661 18.7211C9.93692 18.8814 10.1532 18.9732 10.3799 18.9772C10.6066 18.9812 10.826 18.8971 10.9918 18.7425L14.5 15.2367L18.0058 18.7437C18.1717 18.8982 18.3911 18.9824 18.6178 18.9784C18.8445 18.9744 19.0607 18.8825 19.2211 18.7222C19.3814 18.5619 19.4732 18.3456 19.4772 18.1189C19.4812 17.8923 19.3971 17.6729 19.2425 17.507L15.739 14L19.2437 10.4942Z" fill="#3C4145"/>
</svg>
