<svg width="28" height="28" viewBox="0 0 28 28" fill="none" xmlns="http://www.w3.org/2000/svg">
<path d="M10.1461 22.4554L10.1462 22.4555C10.7471 22.929 11.3684 23.4147 11.9922 23.7793C12.6159 24.1438 13.2897 24.4167 14 24.4167C14.7102 24.4167 15.384 24.1442 16.0079 23.7796C16.6318 23.4149 17.253 22.929 17.8541 22.4542C18.1668 22.2079 18.4931 21.9567 18.8278 21.6991C20.299 20.5667 21.9309 19.3106 23.2669 17.8064C24.9241 15.9405 26.1667 13.6532 26.1667 10.661C26.1667 7.6372 24.4561 5.03005 22.01 3.91194C19.6398 2.82853 16.6638 3.17712 14.0001 5.7137C11.3364 3.17655 8.36036 2.82763 5.99012 3.91091C3.54397 5.02888 1.83337 7.63604 1.83337 10.6598C1.83337 13.6526 3.07632 15.94 4.73357 17.8059C6.06736 19.3077 7.69607 20.5623 9.16493 21.6939C9.50226 21.9537 9.83115 22.2071 10.1461 22.4554Z" fill="#5AC4F6" stroke="#5AC4F6"/>
</svg>
