<svg width="28" height="28" viewBox="0 0 28 28" fill="none" xmlns="http://www.w3.org/2000/svg">
<path fill-rule="evenodd" clip-rule="evenodd" d="M6.56137 5.16131C4.62587 6.04564 3.20837 8.15031 3.20837 10.6598C3.20837 13.223 4.25837 15.1993 5.76104 16.8933C7.00121 18.2886 8.50154 19.446 9.96454 20.573C10.3122 20.8413 10.6575 21.1085 10.997 21.3756C11.6107 21.8598 12.1579 22.2833 12.6864 22.5925C13.2137 22.9005 13.6384 23.0416 14 23.0416C14.3617 23.0416 14.7864 22.9016 15.3137 22.5925C15.8422 22.2833 16.3894 21.8598 17.003 21.3756C17.3414 21.1073 17.6879 20.8413 18.0355 20.5741C19.4985 19.4448 20.9989 18.2886 22.239 16.8933C23.7429 15.1993 24.7917 13.223 24.7917 10.6598C24.7917 8.15148 23.3742 6.04564 21.4387 5.16131C19.558 4.30148 17.031 4.52898 14.63 7.02448C14.5484 7.10916 14.4506 7.17652 14.3423 7.22253C14.2341 7.26854 14.1177 7.29225 14 7.29225C13.8824 7.29225 13.766 7.26854 13.6578 7.22253C13.5495 7.17652 13.4517 7.10916 13.37 7.02448C10.969 4.52898 8.44204 4.30148 6.56137 5.16131ZM14 5.20331C11.3027 2.78831 8.28221 2.44998 5.83337 3.56881C3.25037 4.75298 1.45837 7.49698 1.45837 10.661C1.45837 13.7701 2.75337 16.1431 4.45321 18.0565C5.81354 19.5883 7.47837 20.8705 8.94954 22.0021C9.28321 22.2588 9.60637 22.5085 9.91321 22.7511C10.5117 23.2225 11.1534 23.7241 11.8032 24.1045C12.453 24.4836 13.195 24.7928 14 24.7928C14.805 24.7928 15.547 24.4836 16.1969 24.1045C16.8479 23.7241 17.4884 23.2225 18.0869 22.7511C18.4064 22.4993 18.7277 22.2497 19.0505 22.0021C20.5205 20.8705 22.1865 19.5871 23.5469 18.0565C25.2467 16.1431 26.5417 13.7701 26.5417 10.661C26.5417 7.49698 24.7509 4.75298 22.1667 3.57115C19.7179 2.45115 16.6974 2.78948 14 5.20331Z" fill="#3C4145"/>
</svg>
