<svg width="40" height="32" viewBox="0 0 40 32" fill="none" xmlns="http://www.w3.org/2000/svg">
<path d="M6.66663 26.3334C6.11434 26.3334 5.66663 25.8857 5.66663 25.3334C5.66663 24.7811 6.11434 24.3334 6.66663 24.3334L23.3333 24.3334C23.8856 24.3334 24.3333 24.7811 24.3333 25.3334C24.3333 25.8857 23.8856 26.3334 23.3333 26.3334L6.66663 26.3334ZM6.66663 17C6.11434 17 5.66663 16.5523 5.66663 16C5.66663 15.4478 6.11434 15 6.66663 15L33.3333 15C33.8856 15 34.3333 15.4478 34.3333 16C34.3333 16.5523 33.8856 17 33.3333 17L6.66663 17ZM6.66663 7.66671C6.11434 7.66671 5.66663 7.21899 5.66663 6.66671C5.66663 6.11442 6.11434 5.66671 6.66663 5.66671L33.3333 5.66671C33.8856 5.66671 34.3333 6.11442 34.3333 6.66671C34.3333 7.21899 33.8856 7.66671 33.3333 7.66671L6.66663 7.66671Z" stroke="#3C4145" stroke-width="2" stroke-linecap="round" stroke-linejoin="round"/>
</svg>
